<svg width="1200" height="630" viewBox="0 0 1200 630" fill="none" xmlns="http://www.w3.org/2000/svg">
  <rect width="1200" height="630" fill="#050505"/>
  <path d="M0 120H1200M0 240H1200M0 360H1200M0 480H1200M120 0V630M240 0V630M360 0V630M480 0V630M600 0V630M720 0V630M840 0V630M960 0V630M1080 0V630" stroke="white" stroke-opacity="0.05"/>
  <rect x="96" y="92" width="1008" height="446" rx="24" fill="#111114" fill-opacity="0.82" stroke="white" stroke-opacity="0.12"/>
  <rect x="144" y="142" width="128" height="128" rx="64" fill="#050505" stroke="white" stroke-opacity="0.16"/>
  <text x="208" y="226" text-anchor="middle" fill="#F4F4F5" font-size="72" font-weight="700" font-family="-apple-system,BlinkMacSystemFont,'Segoe UI','PingFang SC','Microsoft YaHei',sans-serif">东</text>
  <text x="144" y="346" fill="#F4F4F5" font-size="76" font-weight="700" font-family="-apple-system,BlinkMacSystemFont,'Segoe UI','PingFang SC','Microsoft YaHei',sans-serif">林东</text>
  <text x="144" y="420" fill="#66E3FF" font-size="38" font-weight="600" font-family="-apple-system,BlinkMacSystemFont,'Segoe UI','PingFang SC','Microsoft YaHei',sans-serif">技术&amp;产品人 · 用 AI Agent 重构软件工程</text>
  <text x="144" y="482" fill="#A1A1AA" font-size="28" font-family="-apple-system,BlinkMacSystemFont,'Segoe UI','PingFang SC','Microsoft YaHei',sans-serif">lindong.live</text>
  <path d="M850 174L1034 358M1034 174L850 358" stroke="#A78BFA" stroke-width="18" stroke-linecap="round" stroke-opacity="0.62"/>
  <path d="M890 432H1030" stroke="#34D399" stroke-width="18" stroke-linecap="round" stroke-opacity="0.7"/>
</svg>
